PathFileType	4	(X/Y/Z)	T1_P2_NoVision_Movement_0_0-734.trc
DataRate	CameraRate	NumFrames	NumMarkers	Units	OrigDataRate	OrigDataStartFrame	OrigNumFrames
60	60	4	27	m	60	642	734
Frame#	Time	RHip			RKnee			RAnkle			RBigToe			RSmallToe			RHeel			LHip			LKnee			LAnkle			LBigToe			LSmallToe			LHeel			Neck			Head			Nose			RShoulder			RElbow			RWrist			RThumb			RIndex			RPinky			LShoulder			LElbow			LWrist			LThumb			LIndex			LPinky		
		X1	Y1	Z1	X2	Y2	Z2	X3	Y3	Z3	X4	Y4	Z4	X5	Y5	Z5	X6	Y6	Z6	X7	Y7	Z7	X8	Y8	Z8	X9	Y9	Z9	X10	Y10	Z10	X11	Y11	Z11	X12	Y12	Z12	X13	Y13	Z13	X14	Y14	Z14	X15	Y15	Z15	X16	Y16	Z16	X17	Y17	Z17	X18	Y18	Z18	X19	Y19	Z19	X20	Y20	Z20	X21	Y21	Z21	X22	Y22	Z22	X23	Y23	Z23	X24	Y24	Z24	X25	Y25	Z25	X26	Y26	Z26	X27	Y27	Z27
643	10.716666666666667	461.4041663616717	3648.596996426144	543.0949930137865	864.458362196846	3712.179752010514	585.4760473959996	1235.6523005340991	3703.270410285627	615.0309541740407	1326.864206739109	3625.322625355737	612.3762427821903	1302.9934068138518	3634.380392021562	547.8467638672163	1278.0990483096468	3701.7407824628026	635.9168669996723	458.9346327023523	3509.236733037724	735.3962469183666	877.1807168627566	3549.705442939466	749.4509648910785	1229.070446530359	3593.5836869290238	737.1374430966168	1317.3201764531832	3535.299111014077	683.3705605255802	1272.5256863091167	3455.4012963225373	715.115518165638	1273.4893348448645	3615.8017564768784	728.7359716444608	-107.96287046437959	3534.1363859840703	639.6034707553359	-358.3333975981055	3481.5920260621324	605.9244962766327	-216.16726133459474	3409.037633462082	557.286944701847	-22.41720305552464	3642.435069992343	527.529083770203	181.03143839905977	3699.4917277695235	427.56621710098653	176.75587186479373	3510.2477529997363	406.19715551281257	150.98652519244482	3418.9933145418536	457.9017855881303	168.44265486332336	3387.4578967047887	447.01984502831846	198.66301976842811	3378.013900316533	431.1581835242434	-14.978093562275438	3521.206976310966	798.6088676528324	241.61127516764736	3445.7458320636542	846.3498302482897	485.1235750121351	3430.0330926644633	828.493984640694	585.2067446892399	3403.568983371848	778.0061016837057	599.7037590028011	3405.370574894286	808.769429423149	596.8899188690708	3374.23022486289	814.456624412029
644	10.733333333333333	461.3929276905096	3648.4756674788614	543.0491051564891	864.3755852499152	3712.1000276587206	585.3789930478023	1232.787013383522	3709.069105931596	617.7547003873452	1331.1324553874697	3634.0877017334424	615.9685195086327	1303.039445089746	3634.468142831918	547.8682153703643	1270.0642339206677	3708.2898596296304	633.2294756309295	462.54440419702615	3504.9097449075884	732.8197192323938	877.1633599878086	3549.4846045785807	749.3243037468648	1229.1358675386182	3593.7791984480746	737.3187520435872	1317.4193012798316	3535.8049356639012	683.4489419571771	1279.7948068790456	3474.8318951938254	721.2254367902606	1273.527728292631	3615.782430972597	728.803374152295	-107.96962575449788	3534.2095549836868	639.6347099955647	-358.4741490389	3481.656415314852	606.0411997288613	-216.20063847600946	3409.015100951799	557.3155303404827	-22.410553695581502	3642.323943466507	527.5334052905212	181.05292631304496	3699.4570226127926	427.62875308861965	176.74834884007745	3510.4333463340795	406.2685328605237	155.8893333572446	3422.6098128783215	459.3949047623115	168.57692818651768	3387.4053155999163	447.0498812218233	198.70391750176276	3378.206189324437	431.22870949141003	-14.907428808691895	3521.3389932619984	798.7346237524577	237.6867067940024	3449.83162537808	848.8941779645946	485.1604931824811	3429.9865712166747	828.5111188685737	584.6190277116449	3403.341226339753	772.7537217670264	605.3159277277114	3408.892263812089	809.8707548932466	601.8650049953452	3377.8369914737386	815.8095544081284
645	10.75	461.75225857940296	3648.244724228672	542.9738082900012	870.9047298169579	3716.519732572493	586.7398456659513	1235.2256459920618	3703.103561760763	614.8444774128159	1317.9324154444278	3611.1384903033327	608.5480684208001	1310.5849044969746	3650.045016351541	560.4618984484796	1269.418568764792	3704.777500561019	636.9456100136065	465.8843314107735	3524.9687152244637	739.0247390021811	872.0384866865493	3534.6711624265376	735.9690733441934	1223.5688018530802	3592.5509673345764	736.0055252468212	1317.3940898216883	3535.848866904376	683.6093746330497	1279.783344981079	3474.896931971576	721.2738245309629	1272.9110940564944	3615.40938657706	728.7181386443347	-108.06203982921565	3534.0979008220834	639.5946145118709	-358.4114083808974	3481.6325013078495	606.1060515809667	-216.25072035413552	3423.349902938629	569.6068745627458	-22.31818811986768	3642.1572307821816	527.4474717215065	181.1707081516713	3699.381260505868	427.60016539426346	176.76058255664287	3510.422692144461	406.2483395155061	151.07793400542593	3419.0547760779396	457.95931363655126	168.384481561967	3387.2802075862396	446.8457830377441	198.57364852222463	3378.1155209730578	431.1533013447768	-14.037817092176303	3536.3197726346484	812.9447709988845	237.7389391149757	3449.7302450174525	848.874866505948	490.668929170057	3433.7175757098344	830.075833334869	585.3150527032594	3403.8752563265202	777.9772551178637	609.1956226203167	3428.6305452861047	816.4470698261642	605.7214961033319	3391.0888053486433	828.4422588754046
646	10.766666666666667	458.26681054150663	3632.1733828824663	530.091708078397	870.846600481175	3716.4735754365647	586.6770508474856	1242.54416917041	3724.2550179530367	620.2984379570233	1326.86806904664	3625.127492971274	612.4146064804903	1310.8458771687747	3650.416132624307	560.6940009773307	1270.1183820999538	3708.304240541443	633.2665943594214	465.9162623641622	3525.14504879567	738.9952306864483	871.0952652014889	3545.2001638191223	747.8645508910048	1229.069291903584	3593.7258030259163	737.2678505978812	1317.511028517646	3535.903619738675	683.5627930657799	1279.8434068472654	3474.8135394306064	721.2608835024657	1273.1707935924248	3615.5965046284546	728.7189158475908	-108.0843867593415	3534.2130972619057	639.6946361899726	-358.50766106783567	3481.8598904171463	606.2524325743746	-224.3011632744321	3418.019681382872	567.2334823504633	-22.32160866423971	3642.207150339451	527.4995071954453	181.22766873827086	3699.262276865957	427.6072510229402	176.7523329513362	3510.367018821128	406.268415271263	150.91864682339556	3419.8070967332687	458.28903298192535	168.1020371124847	3387.6791541750335	447.018927532382	198.4889525195428	3378.1579500627236	431.2182706758037	-14.025835233792687	3536.55403792313	813.1212729132825	237.73768524800542	3449.790151443765	848.9161659210702	490.73452995567186	3433.716260043948	830.0783407291391	584.7565285363975	3403.4579383503333	772.6247937938907	605.4927109156295	3408.7289090895733	809.6073114227564	605.818340757034	3390.815886558592	828.2690892139719
